<?xml version="1.0" standalone="no"?>
<!DOCTYPE svg PUBLIC "-//W3C//DTD SVG 20010904//EN"
 "http://www.w3.org/TR/2001/REC-SVG-20010904/DTD/svg10.dtd">
<svg version="1.0" xmlns="http://www.w3.org/2000/svg"
 width="371.000000pt" height="376.000000pt" viewBox="0 0 371.000000 376.000000"
 preserveAspectRatio="xMidYMid meet">

<g transform="translate(0.000000,376.000000) scale(0.100000,-0.100000)"
fill="#000000" stroke="none">
<path d="M1633 3621 c-89 -23 -199 -126 -254 -237 -71 -143 -45 -241 76 -299
69 -32 91 -63 76 -106 -6 -16 -44 -78 -84 -137 -41 -59 -88 -135 -106 -170
-56 -110 -52 -221 11 -311 l31 -43 -91 3 c-100 4 -127 17 -170 80 -33 47 -27
122 12 156 32 27 53 29 78 6 24 -22 49 -3 32 25 -34 55 -114 52 -167 -7 -90
-100 -37 -276 97 -328 37 -14 676 -18 676 -4 0 16 -40 60 -61 66 -20 7 -20 7
1 40 30 48 36 121 16 183 -16 48 -40 81 -51 70 -3 -3 1 -29 8 -58 20 -77 8
-126 -41 -171 -80 -75 -194 -74 -277 2 -53 49 -68 91 -63 173 4 69 53 185 113
266 49 66 75 128 75 178 l0 42 50 0 c63 0 96 15 111 52 15 36 6 113 -21 193
-21 60 -69 150 -76 142 -2 -2 12 -50 31 -106 50 -145 46 -196 -15 -221 -64
-27 -176 12 -234 81 -39 46 -36 99 12 177 52 87 115 157 168 188 41 24 52 26
127 22 112 -6 163 -30 216 -102 44 -60 82 -83 191 -122 36 -12 55 -23 43 -23
-63 -2 -70 -36 -17 -85 29 -27 34 -37 29 -59 -4 -15 -20 -38 -37 -52 -46 -39
-218 -84 -218 -57 0 13 -94 71 -127 78 -31 6 -32 5 -43 -37 -9 -33 -9 -61 -1
-110 9 -56 8 -71 -5 -98 -22 -44 -29 -131 -14 -175 17 -53 63 -102 114 -121
42 -16 44 -18 39 -53 -3 -24 3 -59 17 -97 46 -127 47 -133 11 -165 -17 -16
-31 -34 -31 -39 0 -15 93 -14 108 1 18 18 15 51 -14 125 -59 154 -64 203 -20
203 29 1 98 33 116 55 14 17 13 18 -5 10 -81 -33 -159 -28 -226 18 -75 51
-101 146 -63 235 12 28 14 54 9 108 -4 40 -3 74 2 77 12 8 93 -41 93 -56 0 -6
-12 -24 -27 -40 -16 -16 -23 -28 -18 -25 6 2 28 12 50 22 50 23 134 17 193
-13 47 -24 56 -13 15 18 -25 21 -26 22 -7 36 22 17 73 30 82 21 3 -4 0 -29 -7
-56 -13 -49 -12 -51 17 -84 49 -56 52 -116 12 -196 -23 -45 -14 -67 45 -116
144 -120 158 -141 135 -209 -23 -69 -92 -95 -144 -54 -30 24 -33 53 -9 104 24
50 7 56 -34 11 -33 -36 -35 -42 -30 -90 5 -46 3 -53 -16 -62 -12 -5 -22 -18
-22 -29 0 -19 8 -20 180 -23 108 -2 195 1 217 8 76 22 132 124 113 209 -9 41
-48 87 -82 95 -30 8 -79 -9 -87 -31 -10 -25 4 -34 29 -17 64 42 113 -65 65
-144 -22 -36 -54 -52 -104 -52 l-34 0 15 43 c30 86 -7 160 -118 233 -96 64
-105 79 -79 135 28 62 26 134 -5 193 -23 43 -24 51 -13 87 9 31 9 48 0 73 -10
28 -9 40 7 77 11 24 25 75 32 113 12 64 12 69 -7 83 -10 7 -30 16 -44 19 -14
3 -56 15 -95 26 -72 21 -83 29 -185 148 -24 28 -52 46 -90 59 -65 23 -162 33
-207 22z"/>
<path d="M1860 3425 c-17 -21 -8 -50 17 -53 30 -4 49 31 27 52 -19 20 -28 20
-44 1z"/>
<path d="M1855 2820 c-9 -15 4 -50 19 -50 20 0 39 27 32 45 -6 17 -42 20 -51
5z"/>
<path d="M2014 2805 c-9 -23 3 -45 25 -45 23 0 35 28 20 46 -15 18 -38 18 -45
-1z"/>
<path d="M1922 2710 c7 -23 36 -36 50 -22 14 14 11 18 -26 28 -21 5 -28 4 -24
-6z"/>
<path d="M1193 2003 c368 -2 966 -2 1330 0 364 1 64 2 -668 2 -731 0 -1029 -1
-662 -2z"/>
<path d="M1785 1814 c-66 -17 -94 -32 -138 -73 -91 -85 -134 -210 -144 -416
-14 -294 60 -492 206 -558 64 -29 178 -29 242 0 103 46 174 158 204 318 22
114 16 377 -10 469 -34 123 -92 202 -174 239 -44 19 -147 31 -186 21z m129
-108 c68 -29 117 -127 135 -276 27 -210 -2 -426 -69 -520 -59 -83 -188 -93
-263 -22 -70 66 -99 178 -98 377 0 255 48 396 149 442 37 16 106 16 146 -1z"/>
<path d="M1095 1738 c-61 -128 -223 -363 -372 -540 -70 -83 -73 -89 -73 -137
l0 -51 245 0 245 0 0 -125 0 -125 55 0 55 0 0 125 0 125 70 0 70 0 0 50 0 50
-70 0 -70 0 0 345 0 345 -63 0 -63 0 -29 -62z m41 -614 c-4 -11 -38 -14 -176
-14 -93 0 -170 3 -170 8 0 4 34 52 76 107 81 105 253 361 256 379 0 6 5 -96
10 -227 5 -132 7 -245 4 -253z"/>
<path d="M2666 1683 c-78 -138 -209 -324 -330 -469 -83 -100 -86 -105 -86
-154 l0 -50 245 0 245 0 0 -125 0 -125 55 0 55 0 0 125 0 125 70 0 70 0 0 50
0 50 -70 0 -70 0 0 345 0 345 -59 0 -58 0 -67 -117z m69 -560 c-3 -10 -46 -13
-175 -13 -93 0 -170 3 -170 7 0 4 38 57 84 117 92 123 149 204 216 314 l45 73
3 -243 c1 -133 0 -248 -3 -255z"/>
<path d="M370 270 c0 -109 2 -130 15 -130 13 0 15 21 15 130 0 109 -2 130 -15
130 -13 0 -15 -21 -15 -130z"/>
<path d="M630 270 c0 -109 2 -130 15 -130 13 0 15 21 15 130 0 109 -2 130 -15
130 -13 0 -15 -21 -15 -130z"/>
<path d="M910 270 c0 -109 2 -130 15 -130 13 0 15 21 15 130 0 109 -2 130 -15
130 -13 0 -15 -21 -15 -130z"/>
<path d="M1030 385 c0 -11 17 -15 73 -18 l72 -3 -72 -2 -73 -2 0 -30 0 -30 85
0 c68 0 85 3 85 15 0 11 -17 15 -72 18 l-73 3 73 2 72 2 0 30 0 30 -85 0 c-68
0 -85 -3 -85 -15z"/>
<path d="M1430 385 c0 -10 -10 -15 -30 -15 -20 0 -30 -5 -30 -15 0 -9 9 -15
25 -15 32 0 32 -13 -2 -40 -36 -28 -18 -46 22 -21 29 17 31 17 58 -3 24 -17
29 -18 37 -6 6 10 1 19 -21 32 -36 22 -37 38 -4 38 16 0 25 6 25 15 0 9 -9 15
-25 15 -16 0 -25 6 -25 15 0 8 -7 15 -15 15 -8 0 -15 -7 -15 -15z"/>
<path d="M1540 325 c0 -60 3 -75 15 -75 9 0 15 9 15 25 0 18 5 25 20 25 11 0
20 7 20 15 0 8 -9 15 -20 15 -16 0 -20 7 -20 35 0 24 -5 35 -15 35 -12 0 -15
-15 -15 -75z"/>
<path d="M1692 384 c-28 -19 -28 -39 0 -58 45 -31 148 -11 148 29 0 23 -42 45
-85 45 -22 0 -51 -7 -63 -16z m113 -29 c0 -11 -69 -19 -92 -11 -8 3 -11 11 -8
16 8 14 100 9 100 -5z"/>
<path d="M2106 374 c-5 -17 -20 -31 -46 -43 -26 -12 -36 -21 -31 -30 7 -10 15
-10 43 2 20 8 39 20 42 26 5 8 16 5 36 -9 32 -23 71 -30 77 -15 2 6 -13 17
-33 24 -25 9 -40 23 -47 42 -14 36 -33 37 -41 3z"/>
<path d="M2412 384 c-30 -21 -30 -77 0 -98 32 -23 66 -20 92 9 31 33 56 33 56
0 0 -16 6 -25 15 -25 12 0 15 14 15 65 0 51 -3 65 -15 65 -9 0 -15 -9 -15 -25
0 -16 -6 -25 -16 -25 -9 0 -27 11 -40 25 -26 29 -60 32 -92 9z m69 -30 c17
-21 0 -49 -32 -49 -24 0 -36 23 -25 51 7 19 40 18 57 -2z"/>
<path d="M2750 387 c0 -19 -30 -44 -62 -52 -17 -5 -25 -12 -21 -21 7 -19 22
-18 66 5 36 18 37 18 76 -1 37 -18 61 -18 61 1 0 4 -18 15 -39 25 -22 9 -43
26 -46 36 -7 22 -35 27 -35 7z"/>
<path d="M3100 270 c0 -109 2 -130 15 -130 13 0 15 21 15 130 0 109 -2 130
-15 130 -13 0 -15 -21 -15 -130z"/>
<path d="M3360 270 c0 -123 1 -130 20 -130 18 0 20 7 20 70 0 63 2 70 20 70
11 0 20 7 20 15 0 8 -9 15 -20 15 -17 0 -20 7 -20 45 0 38 -3 45 -20 45 -19 0
-20 -7 -20 -130z"/>
<path d="M320 350 c0 -29 -4 -40 -15 -40 -8 0 -15 -7 -15 -15 0 -8 7 -15 15
-15 12 0 15 -14 15 -65 0 -51 3 -65 15 -65 13 0 15 20 15 120 0 100 -2 120
-15 120 -11 0 -15 -11 -15 -40z"/>
<path d="M180 365 c0 -12 13 -15 60 -15 47 0 60 3 60 15 0 12 -13 15 -60 15
-47 0 -60 -3 -60 -15z"/>
<path d="M484 359 c-26 -29 -26 -109 0 -138 24 -26 60 -27 86 -1 15 15 20 33
20 70 0 37 -5 55 -20 70 -26 26 -62 25 -86 -1z m64 -21 c17 -17 15 -83 -3 -98
-34 -29 -66 29 -46 83 11 29 30 34 49 15z"/>
<path d="M730 365 c0 -10 10 -15 30 -15 24 0 30 -4 30 -21 0 -25 -16 -56 -42
-86 -34 -36 -10 -49 26 -14 l32 31 23 -31 c18 -24 25 -28 37 -18 12 10 9 17
-16 46 -39 44 -42 93 -5 93 16 0 25 6 25 15 0 12 -14 15 -70 15 -56 0 -70 -3
-70 -15z"/>
<path d="M2940 300 l0 -80 70 0 c56 0 70 3 70 15 0 12 -13 15 -55 15 l-55 0 0
65 c0 51 -3 65 -15 65 -12 0 -15 -16 -15 -80z"/>
<path d="M3210 300 l0 -80 65 0 c51 0 65 3 65 15 0 11 -12 15 -50 15 l-50 0 0
50 0 50 45 0 c33 0 45 4 45 15 0 12 -13 15 -60 15 l-60 0 0 -80z"/>
<path d="M3480 295 c0 -51 3 -65 15 -65 12 0 15 14 15 65 0 51 -3 65 -15 65
-12 0 -15 -14 -15 -65z"/>
<path d="M200 295 c0 -25 -4 -45 -10 -45 -5 0 -10 -7 -10 -15 0 -12 14 -15 65
-15 53 0 63 3 59 15 -4 8 -10 15 -15 15 -5 0 -9 20 -9 45 0 33 -4 45 -15 45
-11 0 -15 -12 -15 -45 0 -25 -4 -45 -10 -45 -5 0 -10 20 -10 45 0 33 -4 45
-15 45 -11 0 -15 -12 -15 -45z"/>
<path d="M1640 285 c0 -12 19 -15 115 -15 96 0 115 3 115 15 0 12 -19 15 -115
15 -96 0 -115 -3 -115 -15z"/>
<path d="M1000 275 c0 -12 19 -15 115 -15 96 0 115 3 115 15 0 12 -19 15 -115
15 -96 0 -115 -3 -115 -15z"/>
<path d="M2650 275 c0 -12 19 -15 115 -15 96 0 115 3 115 15 0 12 -19 15 -115
15 -96 0 -115 -3 -115 -15z"/>
<path d="M2010 255 c0 -11 12 -15 50 -15 l50 0 0 -50 c0 -38 4 -50 15 -50 11
0 15 12 15 50 l0 50 50 0 c38 0 50 4 50 15 0 12 -19 15 -115 15 -96 0 -115 -3
-115 -15z"/>
<path d="M1670 245 c0 -11 17 -15 73 -18 l72 -3 -72 -2 -73 -2 0 -35 0 -35 85
0 c68 0 85 3 85 15 0 11 -17 15 -72 18 l-73 3 73 2 72 2 0 35 0 35 -85 0 c-68
0 -85 -3 -85 -15z"/>
<path d="M2400 205 l0 -55 50 0 c30 0 50 4 50 11 0 8 4 8 14 0 11 -10 17 -7
30 11 l16 22 16 -22 c13 -19 19 -21 30 -11 13 10 12 15 -6 31 -11 10 -23 30
-26 43 -8 34 -18 31 -32 -9 -19 -52 -42 -55 -42 -6 0 29 -4 40 -15 40 -8 0
-15 -7 -15 -15 0 -8 -9 -15 -20 -15 -11 0 -20 7 -20 15 0 8 -7 15 -15 15 -12
0 -15 -13 -15 -55z m70 -15 c0 -5 -9 -10 -20 -10 -11 0 -20 5 -20 10 0 6 9 10
20 10 11 0 20 -4 20 -10z"/>
<path d="M1030 235 c0 -11 17 -15 73 -18 l72 -3 -72 -2 -73 -2 0 -30 0 -30 85
0 c68 0 85 3 85 15 0 11 -17 15 -72 18 l-73 3 73 2 72 2 0 30 0 30 -85 0 c-68
0 -85 -3 -85 -15z"/>
<path d="M1400 225 c0 -10 10 -15 32 -15 26 0 29 -3 20 -12 -7 -7 -26 -17 -42
-23 -23 -8 -27 -13 -20 -25 8 -13 15 -12 53 8 l44 23 37 -22 c34 -20 39 -20
53 -6 14 13 12 16 -15 22 -17 3 -36 13 -43 21 -9 12 -6 14 20 14 21 0 31 5 31
15 0 12 -16 15 -85 15 -69 0 -85 -3 -85 -15z"/>
<path d="M2690 195 l0 -45 80 0 80 0 0 45 c0 33 -4 45 -15 45 -8 0 -15 -4 -15
-10 0 -5 -22 -10 -50 -10 -27 0 -50 5 -50 10 0 6 -7 10 -15 10 -11 0 -15 -12
-15 -45z m108 -12 c-16 -2 -40 -2 -55 0 -16 2 -3 4 27 4 30 0 43 -2 28 -4z"/>
<path d="M3475 200 c-8 -14 3 -30 21 -30 8 0 14 9 14 20 0 21 -24 28 -35 10z"/>
</g>
</svg>
